<svg width="95" height="19" viewBox="0 0 95 19" fill="none" xmlns="http://www.w3.org/2000/svg">
<path d="M6.54 18H0.0400001V17.48H1.34V3.96H0.0400001V3.44H6.54V3.96H5.24V17.48H6.54V18ZM22.272 17.48H23.572V18H17.072V17.48H18.372V10.2C18.372 8.96933 18.19 8.094 17.826 7.574C17.462 7.054 16.916 6.794 16.188 6.794C15.2 6.794 14.4114 7.314 13.822 8.354V17.48H15.122V18H8.62203V17.48H9.92203V6.56H8.62203V6.04H13.822V7.392C14.1514 6.94133 14.6627 6.56 15.356 6.248C16.0667 5.91867 16.8294 5.754 17.644 5.754C20.7294 5.754 22.272 7.42667 22.272 10.772V17.48ZM30.1638 6.56V12.904C30.1638 14.3947 30.2245 15.3047 30.3458 15.634C30.4672 15.946 30.5972 16.2147 30.7358 16.44C30.9958 16.8907 31.4465 17.116 32.0878 17.116C32.7465 17.116 33.2058 17.0293 33.4658 16.856V17.376C32.6338 17.9653 31.7238 18.26 30.7358 18.26C29.2798 18.26 28.1705 17.9133 27.4078 17.22C26.6452 16.5267 26.2638 15.2873 26.2638 13.502V6.56H24.3398V6.04H26.2638C27.0958 5.90133 27.8325 5.50267 28.4738 4.844C29.1152 4.168 29.5572 3.24067 29.7998 2.062H30.1638V6.04H33.1798V6.56H30.1638ZM46.2664 12.8H38.4144C38.5877 15.8507 39.775 17.376 41.9764 17.376C42.5657 17.376 43.233 17.2373 43.9784 16.96C44.741 16.6827 45.2957 16.2927 45.6424 15.79L46.0064 16.05C45.625 16.6913 44.975 17.22 44.0564 17.636C43.1377 18.052 42.219 18.26 41.3004 18.26C40.399 18.26 39.5844 18.1733 38.8564 18C38.1284 17.8093 37.4177 17.4973 36.7244 17.064C36.031 16.6307 35.485 15.9807 35.0864 15.114C34.705 14.2473 34.5144 13.1987 34.5144 11.968C34.5144 9.87067 35.095 8.31933 36.2564 7.314C37.4177 6.29133 38.8217 5.78 40.4684 5.78C42.1324 5.78 43.5104 6.33467 44.6024 7.444C45.7117 8.55333 46.2664 10.3387 46.2664 12.8ZM38.3884 12.28H42.6264C42.6264 10.6853 42.453 9.29 42.1064 8.094C41.777 6.898 41.2397 6.3 40.4944 6.3C39.749 6.3 39.2117 6.88067 38.8824 8.042C38.553 9.186 38.3884 10.5033 38.3884 11.994V12.28ZM54.6552 18H48.1552V17.48H49.4552V6.56H48.1552V6.04H53.3552V9.134C53.5112 8.28467 53.7886 7.59133 54.1872 7.054C54.6032 6.51667 55.0539 6.16133 55.5392 5.988C56.0419 5.81467 56.5186 5.728 56.9692 5.728C57.4372 5.728 57.8792 5.81467 58.2952 5.988C58.7286 6.144 59.0492 6.47333 59.2572 6.976C59.4652 7.46133 59.4739 7.95533 59.2832 8.458C59.0926 8.94333 58.7546 9.29 58.2692 9.498C57.8012 9.706 57.3679 9.732 56.9692 9.576C56.5706 9.42 56.2846 9.212 56.1112 8.952C55.9379 8.67467 55.8166 8.41467 55.7472 8.172C55.5739 7.53067 55.3399 7.21 55.0452 7.21C54.7159 7.21 54.3519 7.782 53.9532 8.926C53.5546 10.0527 53.3552 11.2487 53.3552 12.514V17.48H54.6552V18ZM65.9236 17.48H67.2236V18H60.7236V17.48H62.0236V6.56H60.9836V6.04H65.9236V17.48ZM66.1576 2.608C66.1576 3.232 65.9323 3.76933 65.4816 4.22C65.0483 4.65333 64.5109 4.87 63.8696 4.87C63.2456 4.87 62.7083 4.65333 62.2576 4.22C61.8069 3.76933 61.5816 3.232 61.5816 2.608C61.5816 1.96667 61.8069 1.42067 62.2576 0.969999C62.7083 0.519332 63.2456 0.293999 63.8696 0.293999C64.5109 0.293999 65.0483 0.519332 65.4816 0.969999C65.9323 1.42067 66.1576 1.96667 66.1576 2.608ZM73.3417 16.44C73.7231 17.3067 74.3817 17.74 75.3177 17.74C76.2537 17.74 76.9211 17.298 77.3197 16.414C77.7184 15.53 77.9177 14.074 77.9177 12.046C77.9177 10.0007 77.7184 8.536 77.3197 7.652C76.9211 6.75067 76.2537 6.3 75.3177 6.3C74.3817 6.3 73.7231 6.75067 73.3417 7.652C72.9604 8.536 72.7697 10.0007 72.7697 12.046C72.7697 14.0913 72.9604 15.556 73.3417 16.44ZM75.2657 18.26C73.6191 18.26 72.1284 17.7227 70.7937 16.648C69.4591 15.5733 68.7917 14.048 68.7917 12.072C68.7917 11.0147 68.9824 10.07 69.3637 9.238C69.7624 8.406 70.2824 7.74733 70.9237 7.262C71.5824 6.77667 72.2844 6.41267 73.0297 6.17C73.7751 5.91 74.5377 5.78 75.3177 5.78C76.0977 5.78 76.8604 5.91 77.6057 6.17C78.3684 6.41267 79.0704 6.77667 79.7117 7.262C80.3704 7.74733 80.8991 8.406 81.2977 9.238C81.6964 10.07 81.8957 11.006 81.8957 12.046C81.8957 13.086 81.6964 14.0133 81.2977 14.828C80.8991 15.6427 80.3704 16.2927 79.7117 16.778C78.3944 17.766 76.9124 18.26 75.2657 18.26ZM90.2275 18H83.7275V17.48H85.0275V6.56H83.7275V6.04H88.9275V9.134C89.0835 8.28467 89.3608 7.59133 89.7595 7.054C90.1755 6.51667 90.6262 6.16133 91.1115 5.988C91.6142 5.81467 92.0908 5.728 92.5415 5.728C93.0095 5.728 93.4515 5.81467 93.8675 5.988C94.3008 6.144 94.6215 6.47333 94.8295 6.976C95.0375 7.46133 95.0462 7.95533 94.8555 8.458C94.6648 8.94333 94.3268 9.29 93.8415 9.498C93.3735 9.706 92.9402 9.732 92.5415 9.576C92.1428 9.42 91.8568 9.212 91.6835 8.952C91.5102 8.67467 91.3888 8.41467 91.3195 8.172C91.1462 7.53067 90.9122 7.21 90.6175 7.21C90.2882 7.21 89.9242 7.782 89.5255 8.926C89.1268 10.0527 88.9275 11.2487 88.9275 12.514V17.48H90.2275V18Z" fill="#1B1C22"/>
</svg>
