<svg width="26" height="19" viewBox="0 0 26 19" fill="none" xmlns="http://www.w3.org/2000/svg">
<path d="M24.3197 0.167077C24.2107 0.156547 24.1008 0.156547 23.9917 0.167077H1.59205C1.44849 0.16915 1.30588 0.189323 1.16806 0.227052L12.7279 11.015L24.3197 0.167077Z" fill="#1B1C22"/>
<path d="M25.5039 1.20947L13.8559 12.0795C13.5561 12.3587 13.1506 12.5155 12.7279 12.5155C12.3052 12.5155 11.8997 12.3587 11.5999 12.0795L0.0559997 1.29193C0.0205114 1.41416 0.00169494 1.54011 0 1.66676V16.6599C0 17.0575 0.16857 17.4389 0.468626 17.72C0.768683 18.0012 1.17565 18.1592 1.59999 18.1592H23.9999C24.4242 18.1592 24.8312 18.0012 25.1312 17.72C25.4313 17.4389 25.5998 17.0575 25.5998 16.6599V1.66676C25.5935 1.51058 25.5611 1.35628 25.5039 1.20947ZM2.69598 16.6599H1.58399V15.5879L7.39996 10.1829L8.52795 11.2399L2.69598 16.6599ZM23.9839 16.6599H22.8639L17.0319 11.2399L18.1599 10.1829L23.9759 15.5879L23.9839 16.6599Z" fill="#1B1C22"/>
</svg>
