<svg width="20" height="19" viewBox="0 0 20 19" fill="none" xmlns="http://www.w3.org/2000/svg">
<path d="M17.8571 0H2.14286C1.57454 0 1.02949 0.208993 0.627628 0.581003C0.225765 0.953013 0 1.45757 0 1.98367L0 16.5306C0 17.0567 0.225765 17.5612 0.627628 17.9332C1.02949 18.3052 1.57454 18.5142 2.14286 18.5142H8.27009V12.2198H5.45759V9.25711H8.27009V6.99904C8.27009 4.4306 9.92188 3.01187 12.4518 3.01187C13.6634 3.01187 14.9304 3.21189 14.9304 3.21189V5.7328H13.5344C12.1589 5.7328 11.7299 6.52296 11.7299 7.33337V9.25711H14.8004L14.3094 12.2198H11.7299V18.5142H17.8571C18.4255 18.5142 18.9705 18.3052 19.3724 17.9332C19.7742 17.5612 20 17.0567 20 16.5306V1.98367C20 1.45757 19.7742 0.953013 19.3724 0.581003C18.9705 0.208993 18.4255 0 17.8571 0Z" fill="#1B1C22"/>
</svg>
