<svg width="20" height="20" viewBox="0 0 20 20" fill="none" xmlns="http://www.w3.org/2000/svg">
<path d="M19.9356 5.90309C19.9244 5.06334 19.7669 4.23193 19.4702 3.44606C19.213 2.78318 18.82 2.18117 18.3165 1.67849C17.813 1.17581 17.21 0.783514 16.546 0.526666C15.7689 0.235455 14.948 0.0779923 14.1182 0.0609825C13.0498 0.0133053 12.711 0 9.99889 0C7.28676 0 6.93914 7.43489e-08 5.8785 0.0609825C5.04904 0.0781174 4.22851 0.235578 3.4518 0.526666C2.78771 0.783335 2.18461 1.17557 1.68107 1.67827C1.17753 2.18097 0.784639 2.78308 0.527543 3.44606C0.235263 4.22124 0.07788 5.04059 0.0621946 5.86872C0.014438 6.93647 0 7.27464 0 9.98226C0 12.6899 -8.27475e-09 13.0358 0.0621946 14.0958C0.0788538 14.9252 0.235451 15.7434 0.527543 16.5207C0.785071 17.1835 1.17825 17.7853 1.68196 18.2878C2.18567 18.7903 2.78883 19.1824 3.45291 19.439C4.22749 19.7419 5.04817 19.9106 5.87961 19.9379C6.94913 19.9856 7.28787 20 10 20C12.7121 20 13.0598 20 14.1204 19.9379C14.9502 19.9216 15.7712 19.7645 16.5482 19.4733C17.212 19.2162 17.8149 18.8238 18.3183 18.3211C18.8218 17.8185 19.2149 17.2166 19.4725 16.5539C19.7646 15.7778 19.9211 14.9595 19.9378 14.1291C19.9856 13.0624 20 12.7242 20 10.0155C19.9978 7.30791 19.9978 6.96419 19.9356 5.90309ZM9.99223 15.1026C7.15571 15.1026 4.85784 12.8085 4.85784 9.97672C4.85784 7.14492 7.15571 4.85087 9.99223 4.85087C11.354 4.85087 12.6599 5.39091 13.6228 6.3522C14.5857 7.31348 15.1266 8.61726 15.1266 9.97672C15.1266 11.3362 14.5857 12.64 13.6228 13.6012C12.6599 14.5625 11.354 15.1026 9.99223 15.1026ZM15.331 5.85653C14.6679 5.85653 14.1337 5.3221 14.1337 4.66127C14.1337 4.50438 14.1647 4.34903 14.2248 4.20408C14.285 4.05913 14.3731 3.92743 14.4842 3.81649C14.5953 3.70555 14.7273 3.61755 14.8725 3.55751C15.0176 3.49747 15.1733 3.46657 15.3304 3.46657C15.4876 3.46657 15.6432 3.49747 15.7884 3.55751C15.9336 3.61755 16.0655 3.70555 16.1766 3.81649C16.2877 3.92743 16.3759 4.05913 16.436 4.20408C16.4961 4.34903 16.5271 4.50438 16.5271 4.66127C16.5271 5.3221 15.9918 5.85653 15.331 5.85653Z" fill="#1B1C22"/>
<path d="M10 14.1592C12.2091 14.1592 14 12.3683 14 10.1592C14 7.95004 12.2091 6.15918 10 6.15918C7.79086 6.15918 6 7.95004 6 10.1592C6 12.3683 7.79086 14.1592 10 14.1592Z" fill="#1B1C22"/>
</svg>
