<svg width="385" height="193" viewBox="0 0 385 193" fill="none" xmlns="http://www.w3.org/2000/svg">
<path d="M12.03 24.06H372.939C379.58 24.06 384.969 18.67 384.969 12.03C384.969 5.38901 379.579 0 372.939 0H12.03C5.389 0 0 5.39001 0 12.03C0 18.67 5.39 24.06 12.03 24.06Z" fill="#938071"/>
<path d="M372.939 84.2119H12.03C5.389 84.2119 0 89.6019 0 96.2419C0 102.882 5.39 108.272 12.03 108.272H372.939C379.58 108.272 384.969 102.882 384.969 96.2419C384.969 89.6019 379.58 84.2119 372.939 84.2119Z" fill="#938071"/>
<path d="M372.939 168.424H132.333C125.692 168.424 120.303 173.814 120.303 180.454C120.303 187.095 125.693 192.484 132.333 192.484H372.939C379.58 192.484 384.969 187.094 384.969 180.454C384.97 173.813 379.58 168.424 372.939 168.424Z" fill="#938071"/>
</svg>
