<svg width="20" height="19" viewBox="0 0 20 19" fill="none" xmlns="http://www.w3.org/2000/svg">
<path d="M17.8571 0H2.14286C0.959821 0 0 0.888518 0 1.98367V16.5306C0 17.6257 0.959821 18.5142 2.14286 18.5142H17.8571C19.0402 18.5142 20 17.6257 20 16.5306V1.98367C20 0.888518 19.0402 0 17.8571 0ZM15.6741 6.56263C15.683 6.67835 15.683 6.79819 15.683 6.91391C15.683 10.4969 12.7366 14.6254 7.35268 14.6254C5.69196 14.6254 4.15179 14.1791 2.85714 13.4104C3.09375 13.4352 3.32143 13.4435 3.5625 13.4435C4.93304 13.4435 6.19196 13.0137 7.19643 12.2863C5.91071 12.2615 4.83036 11.4805 4.45982 10.406C4.91071 10.468 5.31696 10.468 5.78125 10.3564C4.44196 10.1043 3.4375 9.01329 3.4375 7.69498V7.66191C3.82589 7.86441 4.28125 7.98839 4.75893 8.00492C4.35733 7.75764 4.02812 7.42217 3.80066 7.02845C3.5732 6.63472 3.45457 6.19499 3.45536 5.7485C3.45536 5.24432 3.59821 4.78147 3.85268 4.3806C5.29464 6.02539 7.45982 7.09988 9.88839 7.21559C9.47321 5.37657 10.9598 3.88468 12.7455 3.88468C13.5893 3.88468 14.3482 4.21116 14.8839 4.74014C15.5446 4.62442 16.1786 4.39713 16.7411 4.08718C16.5223 4.71534 16.0625 5.24432 15.4554 5.57906C16.0446 5.52121 16.6161 5.3683 17.1429 5.15754C16.7455 5.69891 16.2455 6.1783 15.6741 6.56263Z" fill="#1B1C22"/>
</svg>
